<?xml version="1.0" encoding="utf-8"?>
<svg xmlns="http://www.w3.org/2000/svg" viewBox="179 266 677 463">
  <defs>
    <linearGradient id="gradient_0" gradientUnits="userSpaceOnUse" x1="617.86523" y1="345.75443" x2="471.26752" y2="759.35718">
      <stop offset="0" stop-color="#46A07E"/>
      <stop offset="1" stop-color="#4695C7"/>
    </linearGradient>
  </defs>
  <path fill="url(#gradient_0)" d="M762.661 397.583C765.425 398.081 768.475 398.57 771.194 399.161C769.912 412.345 770.808 422.527 779.632 433.133C788.999 444.391 803.152 453.304 815.008 462.002C846.581 485.163 857.295 519.757 853.818 557.892C851.1 587.708 836.207 612.283 813.282 631.44C779.103 660 730.596 670.459 686.919 672.34C679.187 672.828 668.652 672.552 660.834 672.437C639.407 672.334 616.277 669.115 595.103 666.344C569.545 663.001 544.019 657.225 518.757 652.381C458.154 640.76 398.622 623.486 336.392 623.66C306.19 623.744 276.216 624.818 247.641 635.798C236.143 640.132 226.377 644.36 216.374 651.78C212.758 654.462 205.728 662.442 202.255 663.659C199.965 664.436 197.433 663.856 195.711 662.159C186.725 653.459 212.034 638.015 217.747 634.606C256.619 611.408 304.362 608.231 348.519 609.726C372.22 610.619 395.823 613.242 419.141 617.576C522.008 635.914 657.754 680.538 758.885 645.564C777.666 639.069 795.016 629.965 809.643 616.302C828.782 598.426 840.056 576.381 840.878 550.001C841.697 523.721 835.417 498.467 817.031 478.975C796.942 457.678 760.029 443.848 760.971 409.548C761.107 405.511 761.674 401.5 762.661 397.583Z"/>
  <path fill="#4697B6" d="M660.834 672.437C665.078 669.555 679.709 671.917 686.029 671.265L686.789 671.665L686.919 672.34C679.187 672.828 668.652 672.552 660.834 672.437Z"/>
  <path fill="#48A08A" d="M 187.974 276.508 C 201.261 276.656 214.613 276.453 227.942 276.522 C 249.94 276.591 272.95 274.405 290.566 290.419 C 309.584 307.708 310.932 340.462 293.445 359.28 C 283.187 370.319 268.044 373.575 253.5 374.099 C 242.667 374.576 231.143 374.397 220.251 374.399 C 220.73 391.002 220.364 409.28 220.373 426.012 L 187.953 426.06 C 187.444 376.712 187.864 325.896 187.974 276.508 Z M 220.227 348.039 C 234.349 348.072 257.165 350.592 267.601 342.038 C 278.739 329.039 274.872 305.813 256.317 302.285 C 245.06 300.144 231.893 300.994 220.301 301.083 C 220.347 316.567 220.572 332.604 220.227 348.039 Z"/>
  <path fill="#4697B6" d="M724.454 269.126C742.5 268.279 760.835 268.9 778.922 268.901C788.434 268.901 800.142 267.967 809.421 269.146C811.422 269.4 813.174 270.106 814.788 271.319C817.468 273.333 818.471 276.223 818.942 279.437C820.083 287.211 819.062 296.193 819.123 304.115C819.181 311.71 820.239 320.852 818.713 328.289C817.316 335.099 795.274 361.923 789.476 369.581C784.777 375.56 779.787 384.91 773.108 388.767C770.353 390.358 766.695 390.527 763.678 389.637C761.385 388.96 759.863 387.719 758.227 386.031C750.87 378.438 744.253 368.228 737.79 359.756C732.333 352.602 720.865 339.267 717.194 331.786C715.139 327.599 715.168 279.774 716.92 275.454C718.315 272.012 721.211 270.493 724.454 269.126Z"/>
  <path fill="#4697B6" d="M748.998 497.702C756.971 485.246 766.324 480.036 781.149 479.818C797.468 479.578 811.062 488.099 814.151 504.811C815.874 514.131 815.189 525.972 815.181 535.642L815.101 582.664C805.961 582.646 796.552 582.512 787.44 582.851L787.513 542.3C787.526 533.49 788.037 524.502 786.762 515.655C784.789 501.962 768.819 499.046 759.669 507.766C753.69 513.464 753.005 521.569 753.011 529.421C753.019 541.315 753.05 553.307 753.088 565.25L753.033 582.724C743.856 582.598 734.678 582.636 725.502 582.837L725.587 539.486C725.598 531.578 725.748 524.338 725.066 516.452C723.823 502.097 707.034 498.92 697.704 507.964C695.021 510.58 693.152 513.917 692.324 517.571C690.864 523.768 691.334 537.065 691.339 543.842L691.392 582.646C681.974 582.554 672.554 582.623 663.138 582.852C663.7 570.877 663.305 555.813 663.302 543.626L663.233 482.948C672.175 482.853 681.118 482.834 690.061 482.892L690.153 494.887C696.788 485.569 702.783 482.139 713.799 480.105C729.8 478.906 741.616 482.294 748.998 497.702Z"/>
  <path fill="#4697B6" d="M318.073 650.223C326.484 649.615 336.285 650.344 344.754 650.622C379.361 651.762 411.365 658.313 445.054 665.391C513.565 679.599 581.836 699.87 651.996 704.094C696.693 706.32 744.32 701.601 784.945 681.67C789.339 679.514 799.674 671.136 803.543 675.776C811.175 684.932 796.219 691.812 789.566 695.05C759.67 709.602 725.867 715.977 692.877 718.106C665.743 720.621 632.086 717.145 605.294 713.221C555.494 705.929 506.334 693.186 457.132 682.355C404.344 670.734 355.987 660.753 301.452 664.956C277.587 666.795 257.603 671.406 236.26 683.231C228.863 686.448 223.864 694.917 216.354 697.369C213.222 698.146 209.11 694.617 209.227 691.504C209.505 684.086 222.425 675.881 227.873 672.421C255.349 654.973 286.449 651.392 318.073 650.223Z"/>
  <path fill="#4697B6" d="M230.967 446.712C260.886 445.4 281.166 456.418 287.302 486.669L259.231 487.552C257.789 483.066 256.561 479.445 253.216 475.856C244.633 466.65 223.804 466.552 214.952 475.38C209.073 481.244 210.131 491.364 217.517 495.528C222.099 498.111 227.183 499.148 232.238 500.453C248.138 504.808 266.151 506.669 278.915 518.05C293.94 531.448 292.048 558.163 278.401 571.819C267.06 583.167 250.084 585.083 234.734 585.163C211.195 585.02 187.214 576.971 181.354 551.352C180.63 548.188 180.268 544.924 179.853 541.704L207.543 541.636C208.783 546.601 210.241 550.676 213.893 554.629C223.099 564.59 247.831 565.591 257.453 556.119C263.731 549.938 262.234 539.042 254.403 534.623C249.357 531.775 244.199 530.357 238.528 529.078C215.088 523.196 184.786 521.034 183.124 490.289C182.547 479.614 185.004 470.048 192.423 461.859C202.906 450.29 215.947 447.578 230.967 446.712Z"/>
  <path fill="#48A08A" d="M521.701 311.141C542.437 309.417 562.085 316.401 566.509 338.693C568.65 349.478 567.787 363.901 567.788 375.102C567.861 392.072 567.825 409.042 567.678 426.011L536.987 426.06C536.608 401.368 537.592 376.142 536.629 351.455C536.223 341.034 527.752 335.65 517.999 335.985C510.905 336.228 508.061 337.108 502.385 341.44C500.109 343.862 497.385 347.739 496.859 351C495.461 359.678 495.958 370.859 495.96 379.709L495.992 426.019L464.627 426.038L464.568 313.065L494.066 313.087L494.173 328.309C501.204 317.54 509.179 312.952 521.701 311.141Z"/>
  <path fill="#4697B6" d="M 556.744 513.725 C 559.431 489.73 575.883 480.233 598.978 479.795 C 616.501 479.463 639.062 483.44 643.194 503.898 C 644.642 511.21 644.208 519.522 644.207 526.987 C 644.148 538.001 644.185 549.014 644.32 560.027 C 644.471 567.24 644.236 574.968 647.431 581.445 C 647.796 581.652 647.557 581.478 647.904 582.192 C 646.242 583.035 625.231 582.708 621.767 582.707 C 620.794 579.499 620.167 575.665 619.882 572.326 L 619.4 570.64 C 617.367 571.249 613.536 576.678 611.224 578.122 C 598.355 586.165 580.885 587.232 567.182 580.525 C 551.936 573.062 548.959 551.856 557.018 538.132 C 564.974 524.583 583.019 524.204 596.841 522.54 C 603.637 521.721 619.693 521.381 618.091 510.531 C 616.177 500.454 601.664 498.882 593.534 501.251 C 586.821 503.078 584.527 507.683 582.814 513.764 Z M 582.156 546.601 C 578.503 551.256 579.889 559.068 584.099 563.347 C 593.94 569.279 608.662 565.778 614.858 555.941 C 616.991 552.555 620.025 539.594 618.034 536.219 L 617.41 536.174 C 607.664 537.826 588.468 538.558 582.156 546.601 Z"/>
  <path fill="#4697B6" d="M 485.804 480.175 C 488.28 479.801 491.725 479.881 494.219 479.863 C 517.534 479.695 535.145 494.953 539.371 517.749 C 540.823 525.583 540.59 531.594 540.455 539.573 L 469.842 539.556 C 469.994 542.765 470.376 545.427 471.095 548.571 C 475 565.659 498.166 570.639 509.638 558.205 C 511.111 556.608 512.382 553.907 513.411 551.915 C 518.916 551.813 524.721 551.901 530.25 551.899 L 539.391 551.957 C 530.535 586.67 489.16 593.875 462.025 575.664 C 438.781 560.063 437.38 517.837 453.917 497.154 C 462.226 486.762 472.568 481.916 485.804 480.175 Z M 469.829 521.32 L 494.375 521.37 L 513.669 521.394 C 510.876 507.465 504.745 498.937 489.177 500.666 C 476.461 502.878 472.39 509.507 469.829 521.32 Z"/>
  <path fill="#48A08A" d="M598.094 286.014L628.668 285.998C628.694 295.043 628.659 304.088 628.565 313.133L650.53 313.061L650.521 337.016C643.224 337.017 635.926 337.067 628.629 337.165C628.73 354.937 628.546 372.699 628.716 390.474C628.848 404.249 640.15 402.766 650.496 401.477L650.504 422.625C650.488 424.507 650.809 424.536 649.919 425.815C637.555 427.753 614.98 429.027 605.647 419.114C596.234 409.118 598.112 389.714 598.105 376.622L598.174 337.041L580.913 337.056L580.822 313.112L598.222 313.068C598.004 304.206 598.118 294.909 598.094 286.014Z"/>
  <path fill="#4697B6" d="M311.986 456.483L340.043 456.488C340.238 465.181 340.113 474.199 340.106 482.917C347.133 482.861 354.161 482.861 361.188 482.916C361.421 489.298 361.288 496.573 361.313 503.024L340.063 503.187C340.136 513.81 340.137 524.433 340.066 535.055C339.996 555.183 336.157 565.746 361.124 561.404L361.224 576.375L361.094 582.767C315.297 587.382 311.917 580.075 311.939 536.304L311.985 503.093L296 503.149L295.994 482.972C301.098 482.782 306.837 482.877 311.993 482.857L311.986 456.483Z"/>
  <path fill="#48A08A" d="M379.794 312.178C384.457 311.774 388.42 311.985 393.021 312.58C393.099 321.765 393.099 330.95 393.022 340.135C390.77 339.79 388.5 339.586 386.223 339.524C377.566 339.369 369.177 340.984 362.762 347.304C358.959 351.064 356.29 355.817 355.059 361.022C353.585 367.447 354.072 381.197 354.085 388.509L354.049 426.027C349.359 426.044 326.586 426.384 323.851 425.709L323.502 424.625L323.49 313.074C333.21 313.177 343.243 313.054 352.983 313.044L352.938 330.868C358.694 319.654 367.277 313.553 379.794 312.178Z"/>
  <path fill="#4697B6" d="M425.447 481.643C429.332 481.194 434.214 481.463 438.094 481.731C438.181 490.12 438.175 498.51 438.078 506.899C428.703 505.697 418.983 506.138 411.765 513.179C408.3 516.589 405.914 520.942 404.904 525.697C403.702 531.195 404.112 543.804 404.13 549.929L404.076 582.697C400.323 582.626 378.202 583.157 376.608 582.345L376.618 482.949C385.254 482.733 394.395 482.876 403.069 482.876C403.105 488.109 403.199 493.341 403.35 498.572C408.815 489.059 414.019 483.619 425.447 481.643Z"/>
  <path fill="#48A08A" d="M410.898 313.08L442.285 313.062L442.35 425.998C432.179 426.221 421.137 426.037 410.901 426.046L410.898 313.08Z"/>
  <path fill="#4697B6" d="M303.781 691.207C308.563 690.548 323.671 690.768 328.772 690.871C338.56 691.118 348.328 691.865 358.04 693.109C369.756 694.679 460.597 710.186 465.411 716.413C466.645 718.009 467.455 720.416 466.937 722.429C466.536 723.987 465.349 725.439 464.029 726.318C462.469 727.357 460.816 727.616 458.977 727.444C450.802 726.681 442.071 723.516 434.048 721.612C420.633 718.515 407.156 715.693 393.626 713.147C354.757 705.747 310.9 700.084 272.08 710.678C260.936 713.719 253.183 718.382 243.264 723.661C241.054 724.837 235.202 722.837 234.964 719.563C234.427 712.16 241.936 708.307 247.631 705.56C265.258 696.534 284.251 692.771 303.781 691.207Z"/>
  <path fill="#48A08A" d="M425.886 266.882C435.337 266.241 443.554 273.299 444.348 282.737C445.142 292.176 438.219 300.506 428.795 301.454C422.561 302.081 416.473 299.297 412.869 294.172C409.265 289.048 408.703 282.377 411.401 276.722C414.098 271.067 419.635 267.306 425.886 266.882Z"/>
</svg>